<svg xmlns="http://www.w3.org/2000/svg" width="1433.521" height="1379.469" viewBox="0 0 1433.521 1379.469">
  <g id="Opol_Logo" data-name="Opol Logo" transform="translate(-90 -139)">
    <text id="OPOL_PUBLIC_MARKET" data-name="OPOL PUBLIC
MARKET" transform="translate(459.521 1014.463)" fill="#03263f" font-size="166" font-family="Poppins-Bold, Poppins" font-weight="700"><tspan x="0" y="0">OPOL PUBLIC</tspan><tspan x="0" y="249">MARKET</tspan></text>
    <path id="Path_1" data-name="Path 1" d="M471.509-445.519c-71.616,18.229-125.437,67.276-167.539,152.347C286.608-258.014,261-178.151,261-160.355c0,2.169,10.851,3.906,23.872,3.906,22.136,0,23.872-.868,26.476-12.154C340-300.984,414.65-393.434,500.589-402.549c46.876-4.775,98.961,20.4,139.326,67.71,26.91,30.817,56.425,91.582,68.578,140.194l9.549,38.2h47.31l-3.039-15.625c-6.51-34.724-25.174-91.583-39.5-120.663C662.92-411.664,567.865-469.391,471.509-445.519Z" transform="translate(15.636 589.822)" fill="#03263f"/>
    <path id="Path_2" data-name="Path 2" d="M219.736-375.3c-.868.868-1.736,238.722-1.736,528.659V679.846h876.757V575.677H508.806V-40.657h585.952l-.868-167.1-1.3-167.1-435.34-1.3C417.658-376.6,220.6-376.169,219.736-375.3Z" transform="translate(-128 838.623)" fill="#03263f"/>
  </g>
</svg>
